# AST/ASF file generated using VICON BodyLanguage
# -----------------------------------------------
:version 1.10
:name VICON
:units
  mass 1.0
  length 0.45
  angle deg
:documentation
   .ast/.asf automatically generated from VICON data using
   VICON BodyBuilder and BodyLanguage model FoxedUp or BRILLIANT.MOD
:root
   order TX TY TZ RX RY RZ
   axis XYZ
   position 0 0 0  
   orientation 0 0 0 
:bonedata
  begin
     id 1 
     name lhipjoint
     direction 0.576517 -0.752066 0.319413 
     length 2.45433 
     axis 0 0 0  XYZ
  end
  begin
     id 2 
     name lfemur
     direction 0.34202 -0.939693 0  
     length 7.54459  
     axis 0 0 20  XYZ
    dof rx ry rz
    limits (-160.0 20.0)
           (-70.0 70.0)
           (-60.0 70.0)
  end
  begin
     id 3 
     name ltibia
     direction 0.34202 -0.939693 0   
     length 7.73986   
     axis 0 0 20   XYZ
    dof rx
    limits (-10.0 170.0)
  end
  begin
     id 4 
     name lfoot
     direction 0.090693 -0.249177 0.964202   
     length 2.28437   
     axis -90 7.62852e-016 20   XYZ
    dof rx rz
    limits (-45.0 90.0)
           (-70.0 20.0)
  end
  begin
     id 5 
     name ltoes
     direction 1.5356e-011 -4.21928e-011 1   
     length 1.14243   
     axis -90 7.62852e-016 20   XYZ
    dof rx
    limits (-90.0 20.0)
  end
  begin
     id 6 
     name rhipjoint
     direction -0.573937 -0.753736 0.320122   
     length 2.44889  
     axis 0 0 0  XYZ 
  end
  begin
     id 7 
     name rfemur
     direction -0.34202 -0.939693 0   
     length 7.50166   
     axis 0 0 -20   XYZ
    dof rx ry rz
    limits (-160.0 20.0)
           (-70.0 70.0)
           (-70.0 60.0)
  end
  begin
     id 8 
     name rtibia
     direction -0.34202 -0.939693 0   
     length 7.54266   
     axis 0 0 -20   XYZ
    dof rx
    limits (-10.0 170.0)
 end
 begin
     id 9 
     name rfoot
     direction -0.114017 -0.31326 0.942798   
     length 2.34212  
     axis -90 -7.62852e-016 -20   XYZ
    dof rx rz
    limits (-45.0 90.0)
           (-20.0 70.0)
  end
  begin
     id 10 
     name rtoes
     direction -1.53557e-011 -4.21867e-011 1   
     length 1.16246   
     axis -90 -7.62852e-016 -20   XYZ
    dof rx
    limits (-90.0 20.0)
  end
  begin
     id 11 
     name lowerback
     direction -0.0228371 0.999155 -0.034167   
     length 2.0537   
     axis 0 0 0   XYZ
    dof rx ry rz
    limits (-20.0 45.0)
           (-30.0 30.0)
           (-30.0 30.0)
  end
  begin
     id 12 
     name upperback
     direction 0.0198981 0.999794 0.00389455   
     length 2.05302   
     axis 0 0 0   XYZ
    dof rx ry rz
    limits (-20.0 45.0)
           (-30.0 30.0)
           (-30.0 30.0)
  end
  begin
     id 13 
     name thorax
     direction 0.0304566 0.99935 0.0192987   
     length 2.05315   
     axis 0 0 0   XYZ
    dof rx ry rz
    limits (-20.0 45.0)
           (-30.0 30.0)
           (-30.0 30.0)
  end
  begin
     id 14 
     name lowerneck
     direction -0.0196762 0.99417 0.106017   
     length 1.82056   
     axis 0 0 0   XYZ
    dof rx ry rz
    limits (-20.0 45.0)
           (-30.0 30.0)
           (-30.0 30.0)
  end
  begin
     id 15 
     name upperneck
     direction 0.00517787 0.9802 -0.197944   
     length 1.83835   
     axis 0 0 0   XYZ
    dof rx ry rz
    limits (-20.0 45.0)
           (-30.0 30.0)
           (-30.0 30.0)
  end
  begin
     id 16
     name head
     direction 0.00211419 0.996945 -0.078081  
     length 1.85629  
     axis 0 0 0   XYZ
    dof rx ry rz
    limits (-20.0 45.0)
           (-30.0 30.0)
           (-30.0 30.0)
  end
  begin
     id 17 
     name lclavicle
     direction 0.930001 0.365811 -0.0357824  
     length 3.81961  
     axis 0 0 0   XYZ
    dof ry rz
    limits (-20.0 10.0)
           (0.0 20.0)
  end
  begin
     id 18 
     name lhumerus
     direction 1 -4.48968e-011 -3.06644e-027   
     length 5.14507   
     axis 180 -30 -90   XYZ
    dof rx ry rz
    limits (-60.0 90.0)
           (-90.0 90.0)
           (-90.0 90.0)
  end
  begin
     id 19
     name lradius
     direction 1 -4.48965e-011 9.06925e-028   
     length 3.50646   
     axis 180 -30 -90   XYZ
    dof rx
    limits (-10.0 170.0)
  end
  begin
     id 20
     name lwrist
     direction 1 -4.48957e-011 1.03922e-027   
     length 1.75323   
     axis -2.56395e-016 90 90   XYZ
    dof ry
    limits (-180.0 0.0)
 end
  begin
     id 21 
     name lhand
     direction 1 -4.48967e-011 2.08017e-027   
     length 0.629969   
     axis -1.32723e-015 90 90   XYZ
    dof rx rz
    limits (-90.0 90.0)
           (-45.0 45.0)
  end
  begin
     id 22 
     name lfingers
     direction 1 -4.49089e-011 4.20095e-027   
     length 0.507897   
     axis -2.6545e-015 90 90   XYZ
    dof rx
    limits (0.0 90.0)
  end
  begin
     id 23
     name lthumb
     direction 0.707107 -6.35001e-011 0.707107   
     length 0.729241   
     axis -90 45 5.05613e-014   XYZ
    dof rx rz
    limits (-45.0 45.0)
           (-45.0 45.0)
  end
  begin
     id 24 
     name rclavicle
     direction -0.881882 0.464123 -0.0829113   
     length 3.47515  
     axis 0 0 0   XYZ 
    dof ry rz
    limits (-10.0 20.0)
           (-20.0 0.0)
  end
  begin
     id 25 
     name rhumerus
     direction -1 -4.48961e-011 -1.55672e-027  
     length 5.232   
     axis 180 30 90   XYZ
    dof rx ry rz
    limits (-90.0 60.0)
           (-90.0 90.0)
           (-90.0 90.0)
  end
  begin
     id 26 
     name rradius
     direction -1 -4.48963e-011 6.18178e-029   
     length 3.65641   
     axis 180 30 90   XYZ
    dof rx
    limits (-10.0 170.0)
  end
  begin
     id 27 
     name rwrist
     direction -1 -4.48982e-011 1.04136e-027   
     length 1.8282   
     axis -2.56395e-016 -90 -90   XYZ
    dof ry
    limits (-180.0 0.0)
  end
  begin
     id 28
     name rhand
     direction -1 -4.48929e-011 2.07378e-027   
     length 0.656807   
     axis -1.32723e-015 -90 -90   XYZ
    dof rx rz
    limits (-90.0 90.0)
           (-45.0 45.0)
  end
  begin
     id 29
     name rfingers
     direction -1 -4.489e-011 4.13816e-027   
     length 0.529535   
     axis -2.6545e-015 -90 -90   XYZ
    dof rx
    limits (0.0 90.0)
  end
  begin
     id 30
     name rthumb
     direction -0.707107 -6.34843e-011 0.707107   
     length 0.760309   
     axis -90 -45 -5.05613e-014   XYZ
    dof rx rz
    limits (-45.0 45.0)
           (-45.0 45.0)
  end
:hierarchy
  begin
    root lhipjoint rhipjoint lowerback
    lhipjoint lfemur
    lfemur ltibia
    ltibia lfoot
    lfoot ltoes
    rhipjoint rfemur
    rfemur rtibia
    rtibia rfoot
    rfoot rtoes
    lowerback upperback
    upperback thorax
    thorax lowerneck lclavicle rclavicle
    lowerneck upperneck
    upperneck head
    lclavicle lhumerus
    lhumerus lradius
    lradius lwrist
    lwrist lhand lthumb
    lhand lfingers
    rclavicle rhumerus
    rhumerus rradius
    rradius rwrist
    rwrist rhand rthumb
    rhand rfingers
  end

#!OML:ASF H:\ManfredETheater\Project 1\Capture day 1\Session 1\subject.ASF
:FULLY-SPECIFIED
:DEGREES
49
root -0.506996 16.4226 -18.4065 16.2718 -6.76349 -1.62709
lowerback 17.7064 -0.688378 -0.391205
upperback 0.546391 -0.816576 1.80995
thorax -9.32999 -0.328346 2.39485
lowerneck -17.5085 4.8565 1.55599
upperneck 2.77429 6.62002 -6.22505
head 3.88405 2.93597 -1.6217
rclavicle -1.09332e-015 -3.57812e-015
rhumerus -60.1538 -5.21836 -77.369
rradius 87.3126
rwrist -10.4519
rhand -28.9068 9.59238
rfingers 7.12502
rthumb -2.26173 -20.3754
lclavicle -1.09332e-015 -3.57812e-015
lhumerus -44.2331 -8.8911 98.8387
lradius 102.812
lwrist 33.5492
lhand -30.4919 -0.15081
lfingers 7.12502
lthumb -3.79245 29.7952
rfemur -56.0384 -9.0438 16.9543
rtibia 55.4637
rfoot -7.97378 -5.10227
rtoes -37.6475
lfemur -6.76499 -5.0684 -27.1278
ltibia 73.2116
lfoot 4.00397 -9.12835
ltoes -0.720282
50
root -0.529428 16.3795 -17.9006 15.8319 -6.23674 -2.70948
lowerback 18.407 -0.626909 0.721115
upperback 0.6749 -0.469237 2.11905
thorax -9.60279 -0.203351 2.02118
lowerneck -17.3898 4.89064 1.65305
upperneck 2.66005 6.66105 -6.47921
head 3.84595 2.94829 -1.71471
rclavicle 4.32357e-015 -2.10712e-014
rhumerus -57.9036 -5.27492 -78.0816
rradius 86.2908
rwrist -10.4077
rhand -29.0389 9.37909
rfingers 7.12502
rthumb -2.38931 -20.5873
lclavicle 4.32357e-015 -2.10712e-014
lhumerus -44.3013 -8.05726 98.3536
lradius 99.0451
lwrist 32.7323
lhand -30.6873 -0.493285
lfingers 7.12502
lthumb -3.98114 29.4493
rfemur -54.2076 -8.76157 17.7049
rtibia 57.2217
rfoot -9.74861 -7.01098
rtoes -37.9928
lfemur -8.95169 -3.95757 -25.3033
ltibia 76.535
lfoot 2.11647 -8.97944
ltoes -2.0133
51
root -0.55024 16.3457 -17.3973 15.4941 -5.67795 -3.77952
lowerback 18.9835 -0.560196 1.78481
upperback 0.787236 -0.109775 2.44566
thorax -9.81398 -0.0726255 1.68483
lowerneck -17.328 4.90531 1.73909
upperneck 2.58062 6.68084 -6.74261
head 3.82675 2.94775 -1.80925
rclavicle 1.6201e-014 1.88845e-014
rhumerus -55.5829 -5.12185 -78.8179
rradius 85.2975
rwrist -10.3406
rhand -29.2257 9.13033
rfingers 7.12502
rthumb -2.56966 -20.8339
lclavicle 1.6201e-014 1.88845e-014
lhumerus -44.4104 -7.31357 97.9184
lradius 95.3811
lwrist 31.7593
lhand -31.0875 -0.811067
lfingers 7.12502
lthumb -4.36765 29.1239
rfemur -52.228 -8.48724 18.4522
rtibia 58.5831
rfoot -11.5492 -8.85369
rtoes -38.4379
lfemur -11.4248 -2.75289 -23.4578
ltibia 79.6491
lfoot 0.153602 -8.66474
ltoes -3.11569
52
root -0.569561 16.3211 -16.8949 15.282 -5.07454 -4.76606
lowerback 19.3869 -0.485546 2.73141
upperback 0.871145 0.241499 2.77505
thorax -9.95109 0.0580966 1.41547
lowerneck -17.3197 4.90378 1.81529
upperneck 2.55401 6.684 -7.00583
head 3.83122 2.93667 -1.9021
rclavicle -1.12313e-014 8.74653e-015
rhumerus -53.2832 -4.73333 -79.5607
rradius 84.4665
rwrist -10.2118
rhand -29.4508 8.86466
rfingers 7.12502
rthumb -2.78709 -21.0969
lclavicle -1.12313e-014 8.74653e-015
lhumerus -44.6275 -6.70733 97.5487
lradius 91.9991
lwrist 30.8334
lhand -31.6545 -1.00756
lfingers 7.12502
lthumb -4.91516 28.9154
rfemur -50.149 -8.25885 19.141
rtibia 59.547
rfoot -13.3373 -10.658
rtoes -39.1948
lfemur -14.2044 -1.48994 -21.7174
ltibia 82.5334
lfoot -1.86678 -8.21639
ltoes -3.97882
53
root -0.587383 16.3037 -16.393 15.2028 -4.41971 -5.61537
lowerback 19.6011 -0.397589 3.51317
upperback 0.918714 0.571693 3.09114
thorax -10.017 0.185676 1.22819
lowerneck -17.3637 4.88316 1.8797
upperneck 2.5868 6.66662 -7.25458
head 3.86027 2.91355 -1.98899
rclavicle -3.8763e-015 -1.86858e-014
rhumerus -51.0945 -4.10813 -80.3041
rradius 83.9439
rwrist -10.0017
rhand -29.6786 8.63656
rfingers 7.12502
rthumb -3.00711 -21.322
lclavicle -3.8763e-015 -1.86858e-014
lhumerus -45.0167 -6.28586 97.2549
lradius 89.0775
lwrist 30.0959
lhand -32.2575 -1.11289
lfingers 7.12502
lthumb -5.49736 28.7958
rfemur -47.9776 -8.10146 19.726
rtibia 60.0756
rfoot -15.0289 -12.432
rtoes -40.1438
lfemur -17.2896 -0.19348 -20.1986
ltibia 85.1215
lfoot -3.89483 -7.68753
ltoes -4.70294
54
root -0.60361 16.2927 -15.8919 15.2491 -3.68836 -6.30631
lowerback 19.6459 -0.303793 4.12612
upperback 0.920682 0.864479 3.38123
thorax -10.0366 0.302869 1.11783
lowerneck -17.4395 4.84333 1.93957
upperneck 2.67056 6.62531 -7.47085
head 3.90733 2.87832 -2.0664
rclavicle 4.87022e-015 2.78299e-015
rhumerus -49.1132 -3.27272 -81.0448
rradius 83.8728
rwrist -9.75205
rhand -29.8579 8.52145
rfingers 7.12502
rthumb -3.18027 -21.4346
lclavicle 4.87022e-015 2.78299e-015
lhumerus -45.6362 -6.09898 97.0496
lradius 86.7784
lwrist 29.6719
lhand -32.7997 -1.26233
lfingers 7.12502
lthumb -6.02082 28.6321
rfemur -45.7581 -8.01238 20.1885
rtibia 60.22
rfoot -16.496 -14.1618
rtoes -41.1432
lfemur -20.6686 1.09209 -18.9746
ltibia 87.3826
lfoot -5.90227 -7.15766
ltoes -5.27584
55
root -0.617832 16.2876 -15.3913 15.3875 -2.88158 -6.84552
lowerback 19.5706 -0.205023 4.58855
upperback 0.880436 1.12145 3.63506
thorax -10.0356 0.409368 1.06348
lowerneck -17.5401 4.78132 2.00019
upperneck 2.79368 6.55322 -7.64124
head 3.96688 2.82884 -2.13202
rclavicle -1.21259e-014 -4.77083e-015
rhumerus -47.4081 -2.27413 -81.7834
rradius 84.3535
rwrist -9.49504
rhand -29.976 8.55697
rfingers 7.12502
rthumb -3.2943 -21.3973
lclavicle -1.21259e-014 -4.77083e-015
lhumerus -46.5225 -6.17787 96.9398
lradius 85.2176
lwrist 29.566
lhand -33.1215 -1.56991
lfingers 7.12502
lthumb -6.3315 28.3155
rfemur -43.5054 -7.97701 20.5351
rtibia 60.0525
rfoot -17.7155 -15.8599
rtoes -42.1042
lfemur -24.2828 2.33751 -18.0894
ltibia 89.2796
lfoot -7.83972 -6.70933
ltoes -5.7499
56
root -0.629161 16.2881 -14.8902 15.5813 -2.00189 -7.26849
lowerback 19.4226 -0.104443 4.95335
upperback 0.807594 1.35133 3.84897
thorax -10.0302 0.506603 1.02912
lowerneck -17.6549 4.68864 2.06515
upperneck 2.93216 6.43577 -7.75753
head 4.02888 2.75936 -2.18575
rclavicle -3.18055e-015 1.07344e-014
rhumerus -46.0201 -1.18292 -82.5123
rradius 85.437
rwrist -9.25281
rhand -30.0222 8.73676
rfingers 7.12502
rthumb -3.33889 -21.2168
lclavicle -3.18055e-015 1.07344e-014
lhumerus -47.6816 -6.5283 96.9298
lradius 84.4359
lwrist 29.6675
lhand -33.1472 -2.09395
lfingers 7.12502
lthumb -6.35629 27.7907
rfemur -41.2094 -7.98222 20.8038
rtibia 59.63
rfoot -18.6669 -17.5117
rtoes -43.0437
lfemur -28.0516 3.5112 -17.5435
ltibia 90.7762
lfoot -9.68194 -6.42706
ltoes -6.17688
57
root -0.636864 16.295 -14.3876 15.7997 -1.05582 -7.64854
lowerback 19.2395 -0.00352412 5.30231
upperback 0.71178 1.57319 4.03354
thorax -10.0292 0.599826 0.974926
lowerneck -17.779 4.56035 2.12515
upperneck 3.07414 6.26653 -7.81127
head 4.08789 2.66764 -2.22436
rclavicle -8.74653e-015 -3.18055e-014
rhumerus -44.9484 -0.06669 -83.2233
rradius 87.0891
rwrist -9.04652
rhand -29.9668 9.06617
rfingers 7.12502
rthumb -3.28541 -20.8883
lclavicle -8.74653e-015 -3.18055e-014
lhumerus -49.0973 -7.12716 97.0229
lradius 84.3907
lwrist 29.8099
lhand -32.821 -2.85137
lfingers 7.12502
lthumb -6.04139 27.0425
rfemur -38.8553 -7.98871 21.0705
rtibia 58.9981
rfoot -19.3294 -19.0375
rtoes -43.8528
lfemur -31.8955 4.59685 -17.2722
ltibia 91.8385
lfoot -11.4078 -6.37818
ltoes -6.75505
